<svg id="visual" viewBox="0 0 900 600" width="900" height="600" xmlns="http://www.w3.org/2000/svg" xmlns:xlink="http://www.w3.org/1999/xlink" version="1.1"><path d="M0 187L82 187L82 103L164 103L164 127L245 127L245 211L327 211L327 151L409 151L409 211L491 211L491 85L573 85L573 187L655 187L655 85L736 85L736 157L818 157L818 229L900 229L900 271L900 0L900 0L818 0L818 0L736 0L736 0L655 0L655 0L573 0L573 0L491 0L491 0L409 0L409 0L327 0L327 0L245 0L245 0L164 0L164 0L82 0L82 0L0 0Z" fill="#e3cac9"></path><path d="M0 361L82 361L82 361L164 361L164 313L245 313L245 385L327 385L327 343L409 343L409 325L491 325L491 337L573 337L573 325L655 325L655 331L736 331L736 331L818 331L818 349L900 349L900 397L900 269L900 227L818 227L818 155L736 155L736 83L655 83L655 185L573 185L573 83L491 83L491 209L409 209L409 149L327 149L327 209L245 209L245 125L164 125L164 101L82 101L82 185L0 185Z" fill="#b39899"></path><path d="M0 457L82 457L82 421L164 421L164 439L245 439L245 481L327 481L327 505L409 505L409 469L491 469L491 433L573 433L573 421L655 421L655 445L736 445L736 481L818 481L818 457L900 457L900 469L900 395L900 347L818 347L818 329L736 329L736 329L655 329L655 323L573 323L573 335L491 335L491 323L409 323L409 341L327 341L327 383L245 383L245 311L164 311L164 359L82 359L82 359L0 359Z" fill="#85686c"></path><path d="M0 505L82 505L82 505L164 505L164 505L245 505L245 541L327 541L327 541L409 541L409 547L491 547L491 499L573 499L573 505L655 505L655 487L736 487L736 547L818 547L818 517L900 517L900 547L900 467L900 455L818 455L818 479L736 479L736 443L655 443L655 419L573 419L573 431L491 431L491 467L409 467L409 503L327 503L327 479L245 479L245 437L164 437L164 419L82 419L82 455L0 455Z" fill="#593c43"></path><path d="M0 601L82 601L82 601L164 601L164 601L245 601L245 601L327 601L327 601L409 601L409 601L491 601L491 601L573 601L573 601L655 601L655 601L736 601L736 601L818 601L818 601L900 601L900 601L900 545L900 515L818 515L818 545L736 545L736 485L655 485L655 503L573 503L573 497L491 497L491 545L409 545L409 539L327 539L327 539L245 539L245 503L164 503L164 503L82 503L82 503L0 503Z" fill="#2f141f"></path></svg>