<svg id="visual" viewBox="0 0 1000 200" width="1000" height="200" xmlns="http://www.w3.org/2000/svg" xmlns:xlink="http://www.w3.org/1999/xlink" version="1.1"><path d="M0 91L15.2 91C30.3 91 60.7 91 91 81.7C121.3 72.3 151.7 53.7 182 52.3C212.3 51 242.7 67 273 73C303.3 79 333.7 75 364 67.3C394.3 59.7 424.7 48.3 454.8 45.3C485 42.3 515 47.7 545.2 51C575.3 54.3 605.7 55.7 636 54.7C666.3 53.7 696.7 50.3 727 45.7C757.3 41 787.7 35 818 37.7C848.3 40.3 878.7 51.7 909 60C939.3 68.3 969.7 73.7 984.8 76.3L1000 79L1000 0L984.8 0C969.7 0 939.3 0 909 0C878.7 0 848.3 0 818 0C787.7 0 757.3 0 727 0C696.7 0 666.3 0 636 0C605.7 0 575.3 0 545.2 0C515 0 485 0 454.8 0C424.7 0 394.3 0 364 0C333.7 0 303.3 0 273 0C242.7 0 212.3 0 182 0C151.7 0 121.3 0 91 0C60.7 0 30.3 0 15.2 0L0 0Z" fill="#e3cac9"></path><path d="M0 125L15.2 125C30.3 125 60.7 125 91 123.3C121.3 121.7 151.7 118.3 182 116.3C212.3 114.3 242.7 113.7 273 115.7C303.3 117.7 333.7 122.3 364 124.7C394.3 127 424.7 127 454.8 124C485 121 515 115 545.2 109.3C575.3 103.7 605.7 98.3 636 98.7C666.3 99 696.7 105 727 106.7C757.3 108.3 787.7 105.7 818 107C848.3 108.3 878.7 113.7 909 114.7C939.3 115.7 969.7 112.3 984.8 110.7L1000 109L1000 77L984.8 74.3C969.7 71.7 939.3 66.3 909 58C878.7 49.7 848.3 38.3 818 35.7C787.7 33 757.3 39 727 43.7C696.7 48.3 666.3 51.7 636 52.7C605.7 53.7 575.3 52.3 545.2 49C515 45.7 485 40.3 454.8 43.3C424.7 46.3 394.3 57.7 364 65.3C333.7 73 303.3 77 273 71C242.7 65 212.3 49 182 50.3C151.7 51.7 121.3 70.3 91 79.7C60.7 89 30.3 89 15.2 89L0 89Z" fill="#b39899"></path><path d="M0 137L15.2 137.3C30.3 137.7 60.7 138.3 91 138C121.3 137.7 151.7 136.3 182 135.7C212.3 135 242.7 135 273 139C303.3 143 333.7 151 364 153.3C394.3 155.7 424.7 152.3 454.8 148.3C485 144.3 515 139.7 545.2 132.3C575.3 125 605.7 115 636 116C666.3 117 696.7 129 727 133.3C757.3 137.7 787.7 134.3 818 133.7C848.3 133 878.7 135 909 134C939.3 133 969.7 129 984.8 127L1000 125L1000 107L984.8 108.7C969.7 110.3 939.3 113.7 909 112.7C878.7 111.7 848.3 106.3 818 105C787.7 103.7 757.3 106.3 727 104.7C696.7 103 666.3 97 636 96.7C605.7 96.3 575.3 101.7 545.2 107.3C515 113 485 119 454.8 122C424.7 125 394.3 125 364 122.7C333.7 120.3 303.3 115.7 273 113.7C242.7 111.7 212.3 112.3 182 114.3C151.7 116.3 121.3 119.7 91 121.3C60.7 123 30.3 123 15.2 123L0 123Z" fill="#85686c"></path><path d="M0 175L15.2 175C30.3 175 60.7 175 91 171C121.3 167 151.7 159 182 157.3C212.3 155.7 242.7 160.3 273 166C303.3 171.7 333.7 178.3 364 180.3C394.3 182.3 424.7 179.7 454.8 174.3C485 169 515 161 545.2 156.3C575.3 151.7 605.7 150.3 636 152.7C666.3 155 696.7 161 727 164.3C757.3 167.7 787.7 168.3 818 169.7C848.3 171 878.7 173 909 171C939.3 169 969.7 163 984.8 160L1000 157L1000 123L984.8 125C969.7 127 939.3 131 909 132C878.7 133 848.3 131 818 131.7C787.7 132.3 757.3 135.7 727 131.3C696.7 127 666.3 115 636 114C605.7 113 575.3 123 545.2 130.3C515 137.7 485 142.3 454.8 146.3C424.7 150.3 394.3 153.7 364 151.3C333.7 149 303.3 141 273 137C242.7 133 212.3 133 182 133.7C151.7 134.3 121.3 135.7 91 136C60.7 136.3 30.3 135.7 15.2 135.3L0 135Z" fill="#593c43"></path><path d="M0 201L15.2 201C30.3 201 60.7 201 91 201C121.3 201 151.7 201 182 201C212.3 201 242.7 201 273 201C303.3 201 333.7 201 364 201C394.3 201 424.7 201 454.8 201C485 201 515 201 545.2 201C575.3 201 605.7 201 636 201C666.3 201 696.7 201 727 201C757.3 201 787.7 201 818 201C848.3 201 878.7 201 909 201C939.3 201 969.7 201 984.8 201L1000 201L1000 155L984.8 158C969.7 161 939.3 167 909 169C878.7 171 848.3 169 818 167.7C787.7 166.3 757.3 165.7 727 162.3C696.7 159 666.3 153 636 150.7C605.7 148.3 575.3 149.7 545.2 154.3C515 159 485 167 454.8 172.3C424.7 177.7 394.3 180.3 364 178.3C333.7 176.3 303.3 169.7 273 164C242.7 158.3 212.3 153.7 182 155.3C151.7 157 121.3 165 91 169C60.7 173 30.3 173 15.2 173L0 173Z" fill="#2f141f"></path></svg>